<?xml version="1.0" encoding="UTF-8" standalone="no"?>
<!DOCTYPE svg PUBLIC "-//W3C//DTD SVG 1.1//EN" "http://www.w3.org/Graphics/SVG/1.1/DTD/svg11.dtd">
<svg xmlns:dc="http://purl.org/dc/elements/1.1/" version="1.1" xmlns="http://www.w3.org/2000/svg" xmlns:xl="http://www.w3.org/1999/xlink" viewBox="167 616 296 250" width="296" height="250">
  <defs/>
  <g id="Canvas_1" stroke-dasharray="none" fill="none" fill-opacity="1" stroke="none" stroke-opacity="1">
    <title>Canvas 1</title>
    <g id="Canvas_1_Layer_1">
      <title>Layer 1</title>
      <g id="Group_27">
        <title>layer1</title>
        <g id="Group_28">
          <title>g3726</title>
          <g id="Graphic_36">
            <title>path2800</title>
            <path d="M 279.70062 666.6187 L 418.53025 686.7787 L 414.3675 728.8147 L 280.39386 745.8679 L 279.70005 666.618 Z" fill="#784a33"/>
            <path d="M 279.70062 666.6187 L 418.53025 686.7787 L 414.3675 728.8147 L 280.39386 745.8679 L 279.70005 666.618 Z" stroke="#65392e" stroke-linecap="butt" stroke-linejoin="round" stroke-width="1.5152"/>
          </g>
          <g id="Graphic_35">
            <title>path2806</title>
            <path d="M 304.84086 622 L 438.4674 639.9215 L 416.2652 688.6735 L 279.59046 666.3466 L 304.84116 622.0005 Z" fill="#c79a71"/>
            <path d="M 304.84086 622 L 438.4674 639.9215 L 416.2652 688.6735 L 279.59046 666.3466 L 304.84116 622.0005 Z" stroke="#b6906c" stroke-linecap="butt" stroke-linejoin="round" stroke-width="1.5152"/>
          </g>
          <g id="Graphic_34">
            <title>path2810</title>
            <path d="M 202.68035 690.6685 L 278.6926 666.75114 L 278.925 712.29485 L 230.77827 727.66945 L 202.67885 690.66974 Z" fill="#835e44"/>
            <path d="M 202.68035 690.6685 L 278.6926 666.75114 L 278.925 712.29485 L 230.77827 727.66945 L 202.67885 690.66974 Z" stroke="#835e44" stroke-linecap="butt" stroke-linejoin="round" stroke-width="1.5152"/>
          </g>
          <g id="Graphic_33">
            <title>path2808</title>
            <path d="M 172.5 645.636 L 247.84526 623.2665 L 279.1604 666.4588 L 201.98922 689.9117 L 172.50211 645.6362 Z" fill="#be926b"/>
            <path d="M 172.5 645.636 L 247.84526 623.2665 L 279.1604 666.4588 L 201.98922 689.9117 L 172.50211 645.6362 Z" stroke="#997556" stroke-linecap="butt" stroke-linejoin="round" stroke-width="1.5152"/>
          </g>
          <g id="Graphic_32">
            <title>rect1873</title>
            <path d="M 201.59386 689.3297 L 351.17676 718.1627 L 351.36116 860.2391 L 207.4914 822.2998 L 201.59386 689.3273 Z" fill="#ffd6a9"/>
            <path d="M 201.59386 689.3297 L 351.17676 718.1627 L 351.36116 860.2391 L 207.4914 822.2998 L 201.59386 689.3273 Z" stroke="#cf9e76" stroke-linecap="butt" stroke-linejoin="round" stroke-width="1.5152"/>
          </g>
          <g id="Graphic_31">
            <title>path2761</title>
            <path d="M 351.07716 718.2236 L 420.5252 690.56386 L 416.70917 822.9765 L 351.42303 860.1004 L 351.07613 718.2236 Z" fill="#ffd6a9"/>
            <path d="M 351.07716 718.2236 L 420.5252 690.56386 L 416.70917 822.9765 L 351.42303 860.1004 L 351.07613 718.2236 Z" stroke="#b68659" stroke-linecap="butt" stroke-linejoin="round" stroke-width="1.5152"/>
          </g>
          <g id="Graphic_30">
            <title>path2777</title>
            <path d="M 420.09963 690.7172 L 350.8689 718.3696 L 382.06333 679.1037 L 455.32614 654.292 L 420.09963 690.7172 Z" fill="#ffd6a9"/>
            <path d="M 420.09963 690.7172 L 350.8689 718.3696 L 382.06333 679.1037 L 455.32614 654.292 L 420.09963 690.7172 Z" stroke="#946c50" stroke-linecap="butt" stroke-linejoin="round" stroke-width="1.5152"/>
          </g>
          <g id="Graphic_29">
            <title>path2775</title>
            <path d="M 350.77536 718.2236 L 201.37656 689.3346 L 173.09244 659.3843 L 317.8193 685.9803 L 350.77626 718.2236 Z" fill="#ffd6a9"/>
            <path d="M 350.77536 718.2236 L 201.37656 689.3346 L 173.09244 659.3843 L 317.8193 685.9803 L 350.77626 718.2236 Z" stroke="#ab785a" stroke-linecap="butt" stroke-linejoin="round" stroke-width="1.5152"/>
          </g>
        </g>
      </g>
      <g id="Group_45">
        <g id="Graphic_44">
          <path d="M 285.02212 763.9087 L 280.3257 751.68355 C 280.04412 750.95205 280.17224 750.126 280.66217 749.5142 C 281.1521 748.9024 281.93014 748.5968 282.7055 748.7116 L 295.72363 750.6301 Z" fill="#78be20"/>
        </g>
        <g id="Graphic_43">
          <path d="M 291.1374 731.0201 L 280.38448 738.1918 C 279.73263 738.62745 278.89844 738.684 278.19377 738.3403 C 277.4891 737.9967 277.02004 737.3045 276.96195 736.5227 L 275.98682 723.55256 Z" fill="#1bc1d5"/>
        </g>
        <g id="Graphic_42">
          <path d="M 269.64477 751.6669 L 264.95178 763.85 L 254.36782 750.5321 L 267.27575 748.6915 C 268.0502 748.58045 268.82553 748.8883 269.31287 749.5004 C 269.80022 750.1124 269.92654 750.937 269.64477 751.6669 Z" fill="#78be20"/>
        </g>
        <g id="Graphic_41">
          <path d="M 266.1772 744.8537 L 254.02498 748.6112 L 257.9843 732.5492 L 267.04506 741.1476 C 267.6137 741.6866 267.85348 742.4869 267.67484 743.2497 C 267.4962 744.0126 266.926 744.6232 266.1772 744.8537 Z" fill="#1d428a"/>
        </g>
        <g id="Graphic_40">
          <path d="M 296.1747 748.719 L 283.85598 744.9595 C 283.10217 744.7293 282.5287 744.114 282.35192 743.3459 C 282.17516 742.5778 282.42202 741.7738 282.99937 741.2372 L 292.34273 732.5604 Z" fill="#1d428a"/>
        </g>
        <g id="Graphic_39">
          <path d="M 274.02675 723.6309 L 272.90028 736.3096 C 272.83162 737.0869 272.35707 737.77 271.65257 738.1055 C 270.94808 738.4411 270.11867 738.3791 269.47188 737.9425 L 259.18962 731.0108 Z" fill="#1bc1d5"/>
        </g>
        <g id="Graphic_38">
          <path d="M 266.71594 764.69335 L 273.0903 753.6284 C 273.48435 752.9431 274.21525 752.5213 275.00577 752.523 C 275.7963 752.5248 276.52535 752.9497 276.9164 753.6368 L 283.22074 764.6924 Z" fill="#1bc1d5"/>
        </g>
        <g id="Graphic_37">
          <path d="M 275.0068 716.3696 C 263.37746 716.367 252.89194 723.3707 248.44044 734.1143 C 243.98895 744.85795 246.44833 757.2252 254.67157 765.4483 C 262.8948 773.67145 275.26214 776.1306 286.0057 771.6789 C 296.74923 767.2273 303.75277 756.7416 303.75 745.1123 C 303.7504 737.489 300.7222 730.1779 295.3317 724.7875 C 289.9412 719.3971 282.63003 716.36905 275.0068 716.3696 Z M 275.11454 770.0833 C 261.27772 770.086 250.05858 758.8712 250.05587 745.0344 C 250.05317 731.1976 261.26793 719.9785 275.10474 719.97576 C 288.94155 719.97305 300.1607 731.1878 300.1634 745.0246 C 300.16535 751.6696 297.52727 758.0432 292.8296 762.743 C 288.13192 767.4428 281.75954 770.0837 275.11454 770.0848 Z" fill="#727174"/>
        </g>
      </g>
      <g id="Graphic_46">
        <text transform="translate(241.67719 772.1237) rotate(15)" fill="black">
          <tspan font-family="Didot" font-size="16" fill="black" x="0" y="19">TCE Demo</tspan>
          <tspan font-family="Didot" font-size="16" fill="black" x="4.296" y="43.384033">Appliance</tspan>
        </text>
      </g>
      <g id="Graphic_47"/>
    </g>
  </g>
</svg>
